<?xml version="1.0" encoding="UTF-8"?>
<svg width="60" height="85" version="1.1" viewBox="0 0 15.875 22.49" xmlns="http://www.w3.org/2000/svg" xmlns:cc="http://creativecommons.org/ns#" xmlns:dc="http://purl.org/dc/elements/1.1/" xmlns:rdf="http://www.w3.org/1999/02/22-rdf-syntax-ns#">
<metadata>
<rdf:RDF>
<cc:Work rdf:about="">
<dc:format>image/svg+xml</dc:format>
<dc:type rdf:resource="http://purl.org/dc/dcmitype/StillImage"/>
<dc:title/>
</cc:Work>
</rdf:RDF>
</metadata>
<path transform="scale(.26458)" d="m54.287 12.619c-0.94335 0.061585-2.5569 0.99094-2.6016 1.041-1.0053 0.8667-1.6118 1.725-2.666 2.832-3.3028 2.201-5.3925 4.9058-7.1504 7.0273-2.5658 2.1822-4.0814 3.8066-4.7734 4.2734-1.6525 1.7183 2.7989 1.9367 3.6426 2.748 0.84367 0.81139 11.515-12 13.168-13.719 1.1812-1.2282 2.0271-3.9241 0.73828-4.1719-0.10084-0.031739-0.22266-0.040048-0.35742-0.03125zm-52.641 6.1816c-0.88035 0.024899-1.5643 0.31784-1.5215 0.97266-0.042083 0.84467 1.6563 2.5744 1.7246 2.6094 1.0924 0.754 2.0749 1.1245 3.4121 1.8652 2.9633 2.6404 6.107 3.979 8.6035 5.1445 2.7591 1.932 5.0455 2.163 5.6719 2.7148 1.8597-2.3556 1.0345 0.98171 1.4082-3.3926 0.57218-1.0212-14.518-8.1139-16.598-9.2793-0.74326-0.41648-1.8208-0.65966-2.7012-0.63477zm29.723 4.9141c-1.3446-0.006118-4.2547 0.70898-4.5566 0.70898-0.35126 0.27396 0.63482 2.3575-1.2441 2.7227-0.11589 3.0674 6.8089 3.9273 7.9336-0.31055-1.1289 0.074217-2.1538-0.34195-1.4648-2.8223 0.054036-0.21594-0.21978-0.29679-0.66797-0.29883z" fill="#ffb380" fill-rule="evenodd" stroke="#000" stroke-width=".24692"/>
<path d="m10.068 1.1223c-0.08862 0.32652-0.68269 0.94627-0.75625 0.92602-0.083188-0.0019784-0.085364-0.622-0.036011-0.72024-0.051196-0.32401 0.35586-0.79031 0.46815-0.73053 0.082396-1.09e-6 0.32411 0.30313 0.32411 0.52474z" fill="#502d16" fill-rule="evenodd" stroke="#000" stroke-width=".057619"/>
<path d="m11.014 1.4619c-0.43785 0.50058-2.2453 0.62394-1.9005 0.46968 0.2426-0.21939 0.89543-0.82367 1.494-0.78864 0.11081 3e-7 0.40642 0.15417 0.40642 0.31896z" fill="#502d16" fill-rule="evenodd" stroke="#000" stroke-width=".057619"/>
<path d="m9.691 5.1994c0 0.54552-1.0379 1.3599-2.0558 1.4607-0.98247 0.097263-2.2044-0.68469-2.2886-1.4097-0.063818-0.54973 0.09528-0.49722 0.17454-1.6304 0.61295-1.1717 4.0336-2.1212 3.8383 0.70087 0.75506-1.4517 2.7087-0.1518 0.33146 0.87862z" fill="#ffb380" fill-rule="evenodd" stroke="#000" stroke-width=".057619"/>
<path d="m9.5414 1.6902c0.058878 0.43987-0.65316 0.53033-0.95174 0.87972-0.92218 1.0791-3.2495 1.2983-3.524 0.80769-0.9949-1.7781 4.038-4.407 4.4758-1.6874z" fill="#502d16" fill-rule="evenodd" stroke="#000" stroke-width=".057619"/>
<path d="m10.768 3.8567c-0.62309-0.52757-1.2394 0.23904-1.408 0.46405-0.13108-0.28986-0.50777-0.83271-0.95846-0.92706-0.11048-1.3355 1.4039-1.6852 1.9652-1.3504 0.63821 0.3126 0.80125 0.91612 0.40128 1.8135z" fill="#502d16" fill-rule="evenodd" stroke="#000" stroke-width=".057619"/>
<path d="m6.1092 19.736c0.043156 0.16026 0.29524 0.4599 0.060894 0.60454-0.52064 0.81232-2.6124 1.8138-2.6678 1.5965-0.075078-0.1467-0.16223-1.4889 0.35627-1.7543 0.5185-0.26536 2.1755-0.59347 2.2506-0.44678z" fill="#1a1a1a" fill-rule="evenodd" stroke="#000" stroke-width=".065332"/>
<path d="m14.132 14.513c0.16555-0.01172 0.50786-0.20186 0.60503 0.05581 0.6978 0.66634 1.2809 2.911 1.057 2.9238-0.15834 0.04565-1.4925-0.12542-1.6538-0.68508-0.16134-0.55967-0.1666-2.2489-0.0083-2.2945z" fill="#1a1a1a" fill-rule="evenodd" stroke="#000" stroke-width=".065332"/>
<path d="m8.556 14.474c-0.61886-0.42607-1.75-1.4967-1.7554-1.6719-0.31721-0.0939-1.3959 1.0011-2.5285 1.9232-0.23267 0.18943-0.46761 0.37158-0.69869 0.53462-0.16007 0.14692-0.19183 0.25743-0.044376 0.50764l-0.00617 0.0018c0.36078 1.0099 0.62397 2.0162 0.37482 2.5747 0.010964 0.09444 0.14891 0.15266 0.15603 0.2466-0.10062 0.72202-0.80938 1.122-0.65573 1.5992-0.17182 0.19425 1.3966-0.12355 2.2017-0.30243 0.55042-0.12229 0.62751 0.07164 0.65023-0.04664-0.036787-0.45319-0.13926-1.0456-0.60759-1.7636-0.00664-0.44116-0.046209-1.1541-0.175-1.8568 1.4509-0.70025 2.8228-1.4394 3.0887-1.7464z" fill="#784421" fill-rule="evenodd" stroke="#000" stroke-width=".065332"/>
<path d="m8.6211 12.225c-0.41246 0.62802-1.4581 1.7823-1.6331 1.7915-0.086954 0.31919 1.0314 1.3737 1.978 2.4859 0.19447 0.22848 0.3817 0.45938 0.54975 0.68685 0.15038 0.15682 0.26156 0.18616 0.50849 0.03328l0.0019 0.0061c1.0018-0.38275 2.002-0.66786 2.5659-0.43096 0.09418-0.01302 0.14937-0.15221 0.24314-0.16138 0.72404 0.08483 1.1394 0.78468 1.6131 0.62064 0.19796 0.16754-0.15402-1.3935-0.35044-2.1945-0.13428-0.54762 0.05792-0.62892-0.06083-0.64906-0.45228 0.04668-1.0423 0.16206-1.7499 0.64596-0.4409 0.01627-1.1528 0.07141-1.8526 0.21551-0.73175-1.4352-1.5007-2.7907-1.8134-3.0498z" fill="#784421" fill-rule="evenodd" stroke="#000" stroke-width=".065332"/>
<path d="m5.7795 9.7445c0.030867-0.87457-0.011198-1.0584-0.011198-1.0996" fill="none" stroke="#000" stroke-width=".065332"/>
<path d="m8.8641 7.0952c0.69922-0.33617 0.9967-0.057818 1.6958-0.45667-0.10227 0.14994-0.059912 0.75521 0.47487 1.3281-0.18974 0.33484-1.687 0.83762-1.5811 0.68002l0.010693 0.90033c-0.22807 1.774 0.18204 3.9751 0.26911 4.2923-1.2535 0.21873-4.129 0.74721-4.3892-0.1396 0.35031-1.478 0.48208-3.4842 0.42677-4.0579 0.0276 0.072588 0.00373-0.97871 0.00831-0.97871-0.034774-0.015354-1.4099-0.19771-1.5764-0.52684-0.39529-0.61444 0.056671-1.3481 0.23482-1.3274 1.0455 0.29362 1.1242 0.06908 2.3685 0.32755 0.66764 1.343 2.1069 0.3755 2.0578-0.041157z" fill="#c83737" fill-rule="evenodd" stroke="#000" stroke-width=".057619"/>
<path d="m9.4325 9.7446 0.023145-1.1061" fill="none" stroke="#000" stroke-width=".065332"/>
<path transform="scale(.26458)" d="m29.398 14.266c-1.1276 0-2.2344 0.61482-2.2344 0.8457-0.039956 0.39071 1.1583 0.038301 2.293 0.009766 1.1276 0 2.4512-0.032792 2.4512-0.26367 0-0.23088-1.3822-0.5918-2.5098-0.5918zm-8.0801 0.19141c-0.1963 9.39e-4 -0.36528 0.016944-0.48633 0.070313-0.095648 0.10908-0.046875 0.28386-0.046875 0.34961 0 0.20404 0.34398 0.19531 1.0312 0.19531s1.5938 0.14544 1.5938-0.058594c0.032023-0.33213-0.73307-0.62138-1.4395-0.54492-0.23291 0-0.45604-0.012657-0.65234-0.011719z" fill="#502d16" fill-rule="evenodd" stroke="#000" stroke-width=".10889"/>
<path d="m6.3329 4.7595c-0.11347 0.24066-0.69338 0.3723-0.21093 0.61735 0.081705 0.034717 0.19214-0.036641 0.31896-0.077168" fill="none" stroke="#000" stroke-width=".043214"/>
<path d="m8.1335 5.4978c-0.20152 0.6549-1.058 0.88632-1.6249 0.4554-0.080191-0.066242-0.031674-0.31017-0.031674-0.35251 0.49317 0.1539 1.589-0.01897 1.6565-0.10289z" fill="#800000" fill-rule="evenodd" stroke="#000" stroke-width=".043214"/>
<path transform="scale(.26458)" d="m21.293 15.676c-0.22422 0.02714-0.42823 0.09441-0.58203 0.2207-0.07839 0.42338-0.15273 0.82204-0.25586 1.3691 0.19229 0.31757 0.89418 0.63225 1.5352 0.70312 0.78392 1e-6 1.4395-0.50851 1.4395-1.1367-1e-6 -0.62821-0.65554-1.1367-1.4395-1.1367-0.23017-0.03318-0.47305-0.04667-0.69726-0.01953zm8.2812 0.05664c-1.1824 5.3e-5 -2.1403 0.56696-2.1387 1.2656 1.74e-4 0.6979 0.95761 1.2636 2.1387 1.2637 1.1811-5.4e-5 2.1385-0.56577 2.1387-1.2637 0.0017-0.69866-0.95632-1.2656-2.1387-1.2656zm1.1074 5.1348c-3.3955 0.9434-6.6832 0.29142-6.1133 0.34961 0 0-0.08902 0.30937-0.08984 0.5 0.35702 0.22447 1.1689 0.47266 1.8672 0.47266 1.8671 0.04287 4.2702-1.0604 4.2207-1.2461zm9.1719 4.2129-0.35156 0.16016c-0.90372 0.41255 0.86922 5.1997 1.9355 5.1367 0.0684-0.04128 0.35894-0.23432 0.38086-0.3457-1.2551-0.6478-2.0912-3.8754-1.9648-4.9512zm-23.096 0.62109c-1.5906 0.33352-2.1112 4.0644-0.65039 5.4512-0.01246 0 0.30719 0.23304 0.51172 0.18359-1.3721-1.3727-0.83776-4.9804 0.63281-5.4785zm20.43 0.30078c-0.17066 0.043-0.34377-0.0029-0.51953 0.07227-0.21538 1.1468 1.0862 5.4256 2.2266 5.7988 0 0 0.29626-0.12261 0.44336-0.20898-1.2325-0.97656-2.1108-4.4768-2.1504-5.6621zm-1.4766 0.19141c-0.18077 0.01115-0.5957 0.07813-0.5957 0.07813 0.79895 2.898-8.165 9.645-12.787 0.21094-0.20998 0.04819-0.7207-0.01172-0.7207-0.01172 3.9743 9.9928 14.858 4.3385 14.23-0.22266-0.02033-0.04545-0.0667-0.0584-0.12695-0.05469zm-16.465 0.08398c-0.76444 0.88161-1.0386 4.9912-0.24219 5.8887 0 0 0.3177 0.09219 0.48828 0.0918-0.57161-1.4649-0.26678-4.8647 0.29687-5.9082-0.16904-0.04895-0.3533-0.04849-0.54297-0.07227zm2.6309 6.4453c-0.31894 0.05267-0.09246 0.15415-0.04102 0.33594 0.9565 2.07 12.564 1.1774 13.863 0.19922-0.01898-0.19108 0.03269-0.34075-0.04492-0.50586-1.9729 0.91489-11.76 1.513-13.777-0.0293zm0.03125 3.2422c0.02952 0.14549-0.0067 0.3701 0.01563 0.5332 2.254 0.99828 12.66 1.0218 13.73 0.19531l2e-3 -0.54883c0.09344 0.42708-11.218 0.99323-13.748-0.17969zm13.562 3.1758c-4.9449 1.4662-10.763 0.61524-13.58 0.26172-0.03712 0.13122-0.03975 0.44812-0.05273 0.75586 6.7724 0.39674 5.8896 1.1578 13.633-0.38867-0.0113-0.21324 0.01165-0.40926 0-0.62891zm0.03125 3.459c-4.1164 0.64615-9.9833 1.6018-13.865 0.50781-0.0017-6.73e-4 -0.05046 0.4802-0.03516 0.54688 0.35918 1.3065 11.936 0.36493 13.922-0.4668-0.0099-0.16244-0.0076-0.43849-0.02148-0.58789zm0.18555 2.709c-1.2902 1.0812-11.862 2.1213-14.459 1.1055l-0.07422 0.56055c0.08492 1.2237 13.89 0.5783 14.578-1.1445-0.01625-0.10452-0.02425-0.39767-0.04492-0.52148zm0.48242 4.0371c-4.2582 0.82947-9.9057 0.31459-15.418 0.03906l-0.10352 0.50195c4.5821 0.49346 10.476 0.94607 15.619 0.03125zm-16.045 2.457c0.63303 2.6516 10.787 1.7301 11.805 1.2852-1.0294 0.16044-10.323 0.20301-11.805-1.2852zm11.805 1.2852c0.08534-0.0133 0.13146-0.02689 0.09375-0.04102-0.01352 0.01242-0.0631 0.02762-0.09375 0.04102zm23.162 1.4434c-0.02844-0.0079-0.04616-8e-3 -0.04687 0.0098 0.56547 1.0314 3.9623 5.83 4.3828 11.584 0.05193 0.04649 0.20314-0.10875 0.25586-0.06445 0.45846-0.17427-0.49154-4.5081-0.84961-5.0625-0.12666-0.56666-2.5674-5.959-3.4824-6.3945-0.0047 0.05185-0.17446-0.04845-0.25976-0.07227zm-31.385 21.607c-0.90426 0.75222-4.9658 5.0047-10.533 6.5176-0.03568 0.05983 0.14669 0.17807 0.11328 0.23828 0.2587 0.41669 4.331-1.3453 4.8066-1.8027 0.53199-0.23267 5.3588-3.6593 5.6113-4.6406-0.06908 7e-3 0.07234-0.32346 2e-3 -0.3125z" fill="#f9f9f9" fill-rule="evenodd" stroke="#000" stroke-width=".24692"/>
<path d="m5.6665 4.1865c-0.052987-0.00136-0.10924 0.0099-0.16419 0.037025-0.0056 0.00257-0.00887 0.00429-0.012379 0.00613-0.017968 0.097044-0.036005 0.19399-0.058857 0.31544 0.0092 0.10462 0.46219 0.19921 0.50056-0.09425 0.023352-0.14275-0.10618-0.26028-0.26514-0.26435z" fill="#28170b" fill-rule="evenodd" stroke-width=".02881"/>
<path d="m7.866 4.5075c0 0.14206-0.11639 0.26237-0.27266 0.26237-0.16111-0.0036292-0.36303-0.17394-0.31896-0.28295 0-0.14206 0.17298-0.26752 0.32925-0.26752 0.15627-8e-7 0.26237 0.14603 0.26237 0.28809z" fill="#28170b" fill-rule="evenodd" stroke-width=".02881"/>
</svg>
