<?xml version="1.0" encoding="UTF-8"?>
<svg width="60" height="85" version="1.1" viewBox="0 0 15.875 22.49" xmlns="http://www.w3.org/2000/svg" xmlns:cc="http://creativecommons.org/ns#" xmlns:dc="http://purl.org/dc/elements/1.1/" xmlns:rdf="http://www.w3.org/1999/02/22-rdf-syntax-ns#">
<metadata>
<rdf:RDF>
<cc:Work rdf:about="">
<dc:format>image/svg+xml</dc:format>
<dc:type rdf:resource="http://purl.org/dc/dcmitype/StillImage"/>
<dc:title/>
</cc:Work>
</rdf:RDF>
</metadata>
<path d="m9.8875 0.81369c-0.071861 0.33061-0.63357 0.97985-0.70806 0.96337-0.083181 0.0022647-0.11696-0.61684-0.072679-0.71747-0.067646-0.32098 0.31512-0.80743 0.43031-0.75344 0.082289-0.0042013 0.33914 0.28621 0.35044 0.50754z" fill="#502d16" fill-rule="evenodd" stroke="#000" stroke-width=".057619"/>
<path d="m10.85 1.1045c-0.41176 0.52225-2.2106 0.73759-1.874 0.56594 0.2311-0.23147 0.85228-0.86824 1.4519-0.86377 0.11066-0.005648 0.41375 0.13325 0.42215 0.29783z" fill="#502d16" fill-rule="evenodd" stroke="#000" stroke-width=".057619"/>
<path transform="scale(.26458)" d="m31.689 22.863c-1.3431 0.062431-4.2121 0.92601-4.5137 0.94141-0.33684 0.29151 0.75244 2.3227-1.1055 2.7832 0.040624 3.0693 7.0009 3.5728 7.9082-0.7168-1.1236 0.13167-2.169-0.22998-1.6074-2.7422 0.042958-0.21842-0.23393-0.28644-0.68164-0.26562zm9.2148 9.7539c-1.0078-0.13092-3.0315 1.6232-3.9082 1.668-1.169 0.059673 0.86869 16.609 0.99023 18.99 0.086861 1.7018 1.4704 4.1626 2.5332 3.3926 0.73728-0.4143 1.2978-2.7713 1.291-2.8477 0.056277-1.3261-0.15482-2.3565-0.24024-3.8828 0.65616-3.9144 0.11489-7.2877-0.22852-10.021 0.16524-3.3642 0.019002-5.5822 0.15234-6.4062-0.030382-0.59522-0.2539-0.84894-0.58984-0.89258zm-18.844 2.0859c-0.38165-0.034212-0.75973 0.10885-0.88477 0.11523-0.78747-0.23016-0.17607 3.7924 0.3457 7.1484-0.64128 4.1508 0.021854 10.848 0.71484 10.555 0.50406-0.025727 1.4688-7.4405 1.3145-10.465-0.077787-1.524-0.28957-4.9549-0.58008-6.3965-0.143-0.70963-0.5285-0.92282-0.91016-0.95703z" fill="#ffb380" fill-rule="evenodd" stroke="#000" stroke-width=".21777"/>
<path d="m9.7189 4.9046c0.027808 0.54481-0.96721 1.411-1.9786 1.5636-0.97624 0.14722-2.2364-0.57143-2.3575-1.2912-0.091758-0.54576 0.06981-0.50144 0.091198-1.6372 0.55243-1.2014 3.9202-2.3241 3.8691 0.50429 0.68008-1.4884 2.6974-0.28968 0.37582 0.86058z" fill="#ffb380" fill-rule="evenodd" stroke="#000" stroke-width=".057619"/>
<path d="m9.3907 1.4076c0.081224 0.4363-0.62528 0.56294-0.90566 0.92709-0.86597 1.1247-3.1791 1.4623-3.4783 0.98628-1.0842-1.725 3.8081-4.6071 4.3839-1.9134z" fill="#502d16" fill-rule="evenodd" stroke="#000" stroke-width=".057619"/>
<path d="m10.726 3.5088c-0.64918-0.49512-1.2256 0.30191-1.3825 0.53522-0.14568-0.2828-0.54956-0.80574-1.0045-0.877-0.17841-1.3281 1.3162-1.7546 1.8938-1.4489 0.65332 0.27966 0.84691 0.87408 0.4932 1.7906z" fill="#502d16" fill-rule="evenodd" stroke="#000" stroke-width=".057619"/>
<path d="m7.0487 21.291c0.00594 0.11634-0.048635 0.91426-0.48278 0.93642-0.33522 0.11892-2.3688 0.37194-2.6104 0.02506-0.11877-0.20101 0.65786-1.0813 1.146-1.063 0.43415-0.02216 1.9413-0.01483 1.9472 0.10151z" fill="#1a1a1a" fill-rule="evenodd" stroke="#000" stroke-width=".065332"/>
<path d="m7.6455 17.644c0.013382 0.26218-0.00274 1.8058-0.23919 2.1939 0.18529 0.7606 0.21607 1.2694-0.14587 1.342-0.80784 0.61896-2.3598 0.21528-2.4881 0.22183-0.047861 9.71e-4 0.10739-0.35475 0.36228-0.50863 0.075374-0.11953-0.050858-0.31025 0.026683-0.46447 0.085175-0.16941 0.2735-0.23844 0.33105-0.43614 0.031712-0.10894-0.13042-0.13943-0.10314-0.2542 0.047173-0.19846 0.19913-0.36043 0.24373-0.57189 0.018275-0.08666-0.077608-0.16847-0.061542-0.25646 0.032338-0.17712 0.22484-0.2407 0.25541-0.41753 0.12942-0.74863 0.071498-1.5735 0.053161-1.9327-0.055182-1.0811-0.1727-3.118 0.051469-3.1294 0.09953 0.30405 1.6309 0.20365 1.906 0.11201 0.054991 0.15387 0.075372 0.50384 0.081059 0.98325 0.012479 1.0517-0.28988 2.7879-0.273 3.1185z" fill="#784421" fill-rule="evenodd" stroke="#000" stroke-width=".065332"/>
<path d="m9.743 21.395c-0.026276 0.16388 0.080949 0.54048-0.19208 0.57644-0.8077 0.52778-3.1262 0.58456-3.0876 0.36365-0.0084-0.16458 0.46188-1.4247 1.0436-1.4544 0.5817-0.02969 2.2277 0.34974 2.2361 0.51432z" fill="#1a1a1a" fill-rule="evenodd" stroke="#000" stroke-width=".065332"/>
<path d="m6.8711 21.243c-0.044885-0.49926 0.73451-0.7335 0.99156-1.4157 0.013727-0.09321-0.10802-0.18035-0.09793-0.27489 0.86436-1.1574-0.50976-5.3798-0.078756-5.7585 0.15106 0.08882 1.6598-0.29766 2.3502-0.59423 0.13815 0.45465-0.02982 2.5055-0.26624 4.3591-0.00543 0.8011-0.14271 1.6315-0.24463 2.1172 0.29885 0.80341 0.26849 1.4039 0.20464 1.8541-0.048194 0.11038-0.080766-0.09577-0.6446-0.09761-0.82472-0.0027-2.4246-0.03783-2.2142-0.1895z" fill="#784421" fill-rule="evenodd" stroke="#000" stroke-width=".065332"/>
<path d="m8.9898 6.8401c1.6368-0.19713 1.9752 0.44724 2.1731 2.171 0.044989 0.32193-1.303 0.07954-1.4486 0.24701-0.13735 1.7833 0.38444 3.9607 0.48756 4.273-1.2407 0.28235-4.0856 0.95672-4.3906 0.084324 0.27451-1.494 0.30898-3.5045 0.2245-4.0746 0.040362 0.19067-0.59209 0.16716-0.58459 0.067598-0.30959-2.5448 0.72265-2.5135 1.4856-2.6223 0.73524 1.3072 2.1233 0.26761 2.053-0.146z" fill="#c83737" fill-rule="evenodd" stroke="#000" stroke-width=".057619"/>
<path d="m6.0443 9.6433c-0.013755-0.87501-0.065136-1.0565-0.067234-1.0976" fill="none" stroke="#000" stroke-width=".065332"/>
<path d="m9.6925 9.4571-0.033268-1.1058" fill="none" stroke="#000" stroke-width=".065332"/>
<path d="m8.1787 5.2821c-0.16787 0.66433-1.0115 0.93911-1.5995 0.53764-0.083464-0.062068-0.047444-0.30816-0.049602-0.35044 0.50038 0.12856 1.5859-0.099944 1.6491-0.1872z" fill="#800000" fill-rule="evenodd" stroke="#000" stroke-width=".043214"/>
<path transform="scale(.26458)" d="m29.625 14.98a1.2639 2.1388 87.078 0 0-0.13477 0.003906 1.2639 2.1388 87.078 0 0-2.0723 1.3711 1.2639 2.1388 87.078 0 0 2.2012 1.1523 1.2639 2.1388 87.078 0 0 2.0703-1.3711 1.2639 2.1388 87.078 0 0-2.0645-1.1562zm-7.7109 0.35156c-0.46312-0.042799-0.97519-0.002313-1.2695 0.26562-0.056703 0.42683-0.10848 0.82921-0.18359 1.3809 0.20822 0.30735 0.92461 0.58689 1.5684 0.625 0.7829-0.03996 1.4109-0.58159 1.3789-1.209-0.032024-0.62739-0.71124-1.1025-1.4941-1.0625zm8.9434 4.7227c-3.343 1.1153-6.6601 0.63109-6.0879 0.66016 0 0-0.073335 0.31349-0.064453 0.50391 0.368 0.20598 1.1932 0.41256 1.8906 0.37695 1.8669-0.052366 4.2092-1.2761 4.1504-1.459l0.11133-0.082031zm8.9492 6.8867c-1.5283 0.9686-12.735 5.7311-18.479 1.7344-0.12014 0.16343-0.20789 0.36035-0.29688 0.56445 5.0252 3.8857 17.451-0.56653 19.166-1.8789-0.090505-0.17743-0.2402-0.2994-0.39062-0.41992zm1.8945 4.4727c-1.0958 0.4115-3.9384 0.47831-5.127 0.25977-0.011099 0.17564-0.017953 0.33313 0 0.52344 1.0054 0.39617 4.5178 0.28619 5.2695-0.32227-0.10295-0.02523-0.035466-0.44246-0.14258-0.46094zm-5.2734 0.25781c-1.9237 1.0143-11.667 2.1074-13.76 0.66992-0.074588 0.016262-0.11565 0.033216-0.13867 0.052734-0.4852 0.1333-1.6293 0.052117-2.0762-0.23242-0.032088 0.094625-0.019268 0.31738-0.025391 0.41211 0.16504 0.2701 1.8574 0.47914 2.2168 0.19336l-0.017578-0.11719c0.005628 0.01161 0.013359 0.016849 0.017578 0.029297 1.0608 2.0185 12.608 0.53725 13.855-0.50586-0.028694-0.18986 0.013666-0.34102-0.072266-0.50195zm5.7188 2.207c-1.2167 0.41093-4.5745 0.87025-5.4922 0.75l0.050781 0.29492c0.11403 0.65452 5.2255-0.15181 5.4531-0.62891-0.023433-0.076361 0.091047-0.36786-0.011719-0.41602zm-5.543 1.1797c0.11509 0.42177-11.154 1.5639-13.74 0.52148 0.036902 0.14379 0.012378 0.36949 0.042969 0.53125 2.302 0.88208 12.698 0.37411 13.725-0.50586l-0.027343-0.54688zm-16.092 0.32031c-0.035414-0.2219 0.043528 0.4347 0.068359 0.5957-0.004479 0.19932 1.4928 0.27671 2.1973 0.087891-0.009088-0.053622-0.007377-0.35354-0.03711-0.46094-0.19359 0.076048-2.2194 0.061833-2.2285-0.22266zm2.2656 0.68359v0.001953l0.060547-0.011719c-0.016073 0.004888-0.0435 0.005197-0.060547 0.009766zm13.795 1.998c-4.8638 1.7164-10.72 1.1626-13.551 0.95312-0.030349 0.13296-0.016393 0.4498-0.013672 0.75781 6.7838 0.050986 5.9414 0.85524 13.596-1.084-0.022186-0.21237-0.008422-0.40819-0.03125-0.62695zm0.20703 3.4531c-4.0781 0.85512-9.8896 2.1095-13.822 1.2148-0.001776-5.86e-4 -0.024568 0.48107-0.005859 0.54688 0.42531 1.2865 11.94-0.24391 13.881-1.1758-0.018141-0.16173-0.031266-0.43744-0.052734-0.58594zm0.32422 2.6953c-1.2334 1.1457-11.739 2.7239-14.385 1.8418l-0.044922 0.5625c0.14719 1.2178 13.903-0.12912 14.502-1.8848-0.021561-0.10355-0.045317-0.39696-0.072265-0.51953zm0.6875 4.0059c-4.2104 1.0455-9.8773 0.8205-15.396 0.82617l-0.078125 0.50781c4.6013 0.25942 10.51 0.41018 15.6-0.76562l-0.125-0.56836zm-15.9 3.2734c0.76657 2.6132 10.84 1.1793 11.852 0.68164-1.0284 0.21292-10.296 0.72826-11.852-0.68164zm11.852 0.68164c0.085881-0.01778 0.13434-0.034605 0.095703-0.046875-0.013315 0.013552-0.064129 0.031346-0.095703 0.046875zm3.0117 30.355c-1.133 0.31582-6.5787 2.5312-12.277 1.6309-0.057063 0.040025 0.059046 0.2224 0.003907 0.26367 0.065321 0.48612 4.5037 0.54668 5.125 0.32422 0.58062 0.005665 6.3852-1.1418 7.0176-1.9336-0.0659-0.021921 0.19949-0.26626 0.13086-0.28516zm-21.689 1.0859c-0.21105 0.023698-0.16497 0.29281-0.14648 0.36719-0.056223 0.61696 4.2452 0.92086 5.3633 0.69141 0.72562-0.037037 2.9391-0.29758 4.207-0.60547 0.024823-0.10282 0.067396-0.23175 0.10938-0.36523-2.0412 0.24097-7.5622 1.1128-9.5332-0.087891z" fill="#f9f9f9" fill-rule="evenodd" stroke="#000" stroke-width=".24692"/>
<path d="m7.8611 4.3067c0.0072418 0.14188-0.10287 0.26797-0.25893 0.27593-0.16108 0.0045882-0.37142-0.15521-0.33297-0.26632-0.0072417-0.14188 0.15912-0.27599 0.31519-0.28395 0.15607-0.0079667 0.26948 0.13247 0.27672 0.27435z" fill="#28170b" fill-rule="evenodd" stroke-width=".02881"/>
<path transform="scale(.26458)" d="m29.24 13.527c-1.1261 0.057478-2.2012 0.7284-2.1895 0.95898-0.019987 0.39225 1.1593-0.021069 2.291-0.10742 1.1261-0.057478 2.4454-0.15809 2.4336-0.38867s-1.4091-0.52037-2.5352-0.46289zm-6.8809 0.56055c-0.17138-0.012789-0.35195-0.006607-0.52734 0.021484-0.46521 0.023743-0.89843-0.003704-1.1348 0.11523-0.089953 0.11381-0.032649 0.28785-0.029297 0.35352 0.0104 0.20377 0.35268 0.17566 1.0391 0.14062 0.68638-0.035032 1.6002 0.065098 1.5898-0.13867 0.01129-0.25-0.42336-0.45382-0.9375-0.49219z" fill="#502d16" fill-rule="evenodd" stroke="#000" stroke-width=".10889"/>
<path d="m6.3429 4.6366c-0.10105 0.24613-0.6735 0.40716-0.17918 0.6273 0.083369 0.030507 0.19002-0.046388 0.31461-0.093327" fill="none" stroke="#000" stroke-width=".043214"/>
<path d="m5.6481 4.0982c-0.052987 0.00135-0.10859 0.015454-0.16209 0.045346-0.00546 0.00285-0.00864 0.00473-0.01205 0.00676-0.012998 0.097831-0.02607 0.19557-0.042701 0.31803 0.014518 0.10401 0.47174 0.17539 0.49511-0.11964 0.016045-0.14376-0.11931-0.25453-0.27827-0.25049z" fill="#28170b" fill-rule="evenodd" stroke-width=".02881"/>
</svg>
