<?xml version="1.0" encoding="UTF-8"?>
<svg width="50" height="50" version="1.1" viewBox="0 0 13.229167 13.229167" xmlns="http://www.w3.org/2000/svg" xmlns:cc="http://creativecommons.org/ns#" xmlns:dc="http://purl.org/dc/elements/1.1/" xmlns:rdf="http://www.w3.org/1999/02/22-rdf-syntax-ns#">
<metadata>
<rdf:RDF>
<cc:Work rdf:about="">
<dc:format>image/svg+xml</dc:format>
<dc:type rdf:resource="http://purl.org/dc/dcmitype/StillImage"/>
<dc:title/>
</cc:Work>
</rdf:RDF>
</metadata>
<g>
<path d="m11.097 1.3227c-0.18981 0.6993-1.4622 2.0266-1.6197 1.9832-0.17817-0.0042371-0.18283-1.3321-0.077128-1.5425-0.10965-0.69393 0.76219-1.6926 1.0027-1.5646 0.17648-2.34e-6 0.69418 0.6492 0.69418 1.1238z" fill="#502d16" fill-rule="evenodd" stroke="#000" stroke-width=".057619"/>
<path d="m13.124 2.0499c-0.93779 1.0721-4.809 1.3363-4.0704 1.0059 0.51961-0.46986 1.9178-1.764 3.1999-1.689 0.23733 6e-7 0.87047 0.33018 0.87047 0.68312z" fill="#502d16" fill-rule="evenodd" stroke="#000" stroke-width=".057619"/>
<path d="m10.289 10.054c0 1.1683-2.2229 2.9125-4.403 3.1283-2.1043 0.20831-4.7214-1.4664-4.9017-3.0192-0.13669-1.1774 0.20407-1.0649 0.37382-3.4918 1.3128-2.5093 8.6392-4.543 8.221 1.501 1.6172-3.1092 5.8014-0.3251 0.70993 1.8817z" fill="#ffb380" fill-rule="evenodd" stroke="#000" stroke-width=".057619"/>
<path d="m9.969 2.5388c0.12611 0.94206-1.3989 1.1358-2.0384 1.8841-1.9751 2.3111-6.9598 2.7806-7.5478 1.7298-2.1309-3.8081 8.6486-9.4384 9.5862-3.6139z" fill="#502d16" fill-rule="evenodd" stroke="#000" stroke-width=".057619"/>
<path d="m12.595 7.1788c-1.3345-1.1299-2.6545 0.51194-3.0157 0.99385-0.28074-0.62079-1.0876-1.7834-2.0528-1.9855-0.23663-2.8602 3.007-3.6093 4.2091-2.8922 1.3669 0.66949 1.7161 1.962 0.85945 3.8838z" fill="#502d16" fill-rule="evenodd" stroke="#000" stroke-width=".057619"/>
<path d="m6.9537 10.694c-0.43162 1.4026-2.2661 1.8982-3.4802 0.97532-0.17175-0.14187-0.067839-0.6643-0.067839-0.75496 1.0563 0.3296 3.4032-0.04063 3.548-0.22036z" fill="#800000" fill-rule="evenodd" stroke="#000" stroke-width=".043214"/>
<path transform="scale(.26458)" d="m6.7891 29.459c-0.75579-0.025299-1.4961 0.094281-1.9902 0.5-0.16789 0.90676-0.32599 1.7619-0.54688 2.9336 0.41184 0.68013 1.9162 1.3541 3.2891 1.5059 1.679 2e-6 3.082-1.0901 3.082-2.4355-1e-6 -1.3454-1.403-2.4356-3.082-2.4355-0.24649-0.035527-0.50002-0.059927-0.75195-0.06836zm16.994 0.15039a4.581 2.7068 0 0 0 -4.582 2.707 4.581 2.7068 0 0 0 4.582 2.707 4.581 2.7068 0 0 0 4.5801 -2.707 4.581 2.7068 0 0 0 -4.5801 -2.707zm2.373 10.994c-6.2437 1.7346-12.282 0.95675-13.104 0.7793-0.013486 0.047632-0.1819 0.64844-0.18359 1.041 0.76466 0.48075 2.5043 1.0117 4 1.0117 3.9991 0.091808 9.143-2.2665 9.0371-2.6641l0.25-0.16797zm-13.104 0.7793c5.39e-4 -0.001902 0.007813-0.029296 0.007813-0.029296-0.17269-0.017629-0.14318 5.6e-5 -0.007813 0.029296z" fill="#fff" fill-rule="evenodd" stroke="#000" stroke-width=".16333"/>
<path transform="scale(.26458)" d="m6.3105 29.803c-0.42893-0.010998-0.88326 0.079264-1.3281 0.29883-0.045332 0.020788-0.071206 0.035894-0.099609 0.050782-0.14545 0.78553-0.29158 1.5696-0.47656 2.5527 0.074474 0.84685 3.7401 1.6118 4.0508-0.76367 0.18904-1.1555-0.85971-2.1057-2.1465-2.1387zm15.682 0.26562c-1.265 3e-6 -2.666 1.0161-2.666 2.166-0.35674 0.8824 1.2779 2.2597 2.582 2.2891 1.265 5e-6 2.207-0.97311 2.207-2.123-9e-6 -1.1499-0.85803-2.332-2.123-2.332z" fill="#28170b" fill-rule="evenodd" stroke-width=".10889"/>
<path transform="scale(.26458)" d="m23.408 26.467c-2.415 0-4.7891 1.3161-4.7891 1.8105-0.085579 0.83677 2.4838 0.082599 4.9141 0.021484 2.415 0 5.248-0.068028 5.248-0.5625 0-0.49447-2.958-1.2695-5.373-1.2695zm-15.338 0.41016c-0.18943-0.002628-0.38119 0.006876-0.57031 0.027344-0.99768 0-1.921-0.1075-2.4395 0.12109-0.20486 0.23361-0.10156 0.61115-0.10156 0.75195-8e-7 0.43699 0.73503 0.41797 2.207 0.41797 1.472 0 3.416 0.31198 3.416-0.125 0.060014-0.62241-1.1857-1.175-2.5117-1.1934z" fill="#502d16" fill-rule="evenodd" stroke="#000" stroke-width=".10889"/>
<path d="m3.0972 9.1125c-0.24302 0.51542-1.4851 0.79736-0.45176 1.3222 0.175 0.07435 0.41153-0.07847 0.68316-0.16527" fill="none" stroke="#000" stroke-width=".043214"/>
</g>
</svg>
