<?xml version="1.0" encoding="UTF-8"?>
<svg width="50" height="50" version="1.1" viewBox="0 0 13.229167 13.229167" xmlns="http://www.w3.org/2000/svg" xmlns:cc="http://creativecommons.org/ns#" xmlns:dc="http://purl.org/dc/elements/1.1/" xmlns:rdf="http://www.w3.org/1999/02/22-rdf-syntax-ns#">
<metadata>
<rdf:RDF>
<cc:Work rdf:about="">
<dc:format>image/svg+xml</dc:format>
<dc:type rdf:resource="http://purl.org/dc/dcmitype/StillImage"/>
<dc:title/>
</cc:Work>
</rdf:RDF>
</metadata>
<path d="m4.5396 9.0813c-1.7975 2.2957-3.6103 4.6704-4.3265 1.4552 2.6709 2.2123 2.1315-1.279 1.9137-4.1991-0.0024905-1.1303 1.8357-2.0318 1.2064-5.1553 2.5408-1.8952 2.661 0.5221 2.704 3.0766 0.39089 2.4336-0.34304 3.8234-1.4976 4.8228z" fill="#00f" opacity=".995" stroke="#000" stroke-width=".26458px"/>
<path d="m13.089 11.888c-0.05282 1.247-1.0447 0.9443-1.7528 0.11483-0.57277-0.6709-0.27352-1.6449-0.51438-2.5054-0.69635-1.29-0.90733-0.35799-0.7904-3.326-0.83988-1.2554-1.0355-3.4879-2.08-3.4299-0.10344 0.91147 0.10733 1.1692-0.2912 1.9333-0.65952-0.0097926-1.3019-0.041677-1.5809-0.54048-0.80378-2.7641 3.7062-4.4061 3.7856-0.083151 2.5972 4.2218 0.87284 3.4648 1.2064 4.7812 0.2595 0.69064 0.5675 0.94365 0.72408 1.422 0.1138 0.34766-0.3724 0.81435 0.10794 1.5299 0.5329 0.54331 0.80235 0.51228 1.1856 0.10394z" fill="#00f" opacity=".995" stroke="#000" stroke-width=".26458px"/>
<path d="m4.4891 4.266c0.20362-0.46746 0.56788-0.84847 0.29416-1.5729-0.30374-0.48523-0.5542-1.0077-0.47066-1.7639 0.63788 1.4797 1.0714 1.053 1.6031 1.5434 0.19231 0.58306 0.15245 1.1661 0.07354 1.7492-0.48427 0.45682-0.97701 0.6765-1.5002 0.044097z" fill="#0ff" opacity=".995" stroke="#f00" stroke-width=".26458px"/>
<path d="m6.1511 4.0602 0.7501-1.4111c0.50024-0.51441 0.94462-0.12326 1.5444-1.0289-0.056354 0.80712-0.80536 1.3975-0.58832 2.44-0.56871 1.0534-1.1374 0.5596-1.7061 0z" fill="#0ff" opacity=".995" stroke="#f00" stroke-width=".26458px"/>
<path d="m4.5396 4.217c-1.5105 0.27592-3.1706 4.8287 2.7456 5.9868 3.123-0.68186 3.5764-3.5022 0.624-6.1532z" fill="#ffb380" opacity=".995" stroke="#000" stroke-width=".26458px"/>
<path d="m3.9259 5.8073c0.38133-0.12121 0.99627-0.42239 1.1648-0.46772 0.48414-0.10213 0.53103 0.43486 0.093601 0.47812-0.18929-0.025113-0.70415-0.091123-1.2585-0.010396z" fill="#fff" opacity=".995" stroke="#000" stroke-linejoin="round" stroke-width=".13229"/>
<path d="m8.3483 5.3778c-0.39865-0.034571-1.0648-0.19345-1.2391-0.20069-0.49476 0.0066122-0.42253 0.54078 0.013732 0.48699 0.17915-0.066039 0.66694-0.24342 1.2254-0.2863z" fill="#fff" opacity=".995" stroke="#000" stroke-linejoin="round" stroke-width=".13229"/>
<path d="m4.706 7.2c0.76006 2.8108 2.5767 1.7913 3.1616-0.051969" fill="none" opacity=".995" stroke="#000" stroke-linecap="round" stroke-width=".13229"/>
<ellipse cx="5.2025" cy="5.5668" rx=".15444" ry=".15434" fill="#f0f" fill-opacity=".99608" fill-rule="evenodd" opacity=".995" stroke-width=".26458"/>
<ellipse cx="7.0556" cy="5.4271" rx=".15444" ry=".15434" fill="#f0f" fill-opacity=".99608" fill-rule="evenodd" opacity=".99002" stroke-width=".26458"/>
</svg>
