<?xml version="1.0" encoding="UTF-8"?>
<svg width="400" height="600" version="1.1" viewBox="0 0 105.83333 158.75" xmlns="http://www.w3.org/2000/svg" xmlns:cc="http://creativecommons.org/ns#" xmlns:dc="http://purl.org/dc/elements/1.1/" xmlns:rdf="http://www.w3.org/1999/02/22-rdf-syntax-ns#">
<metadata>
<rdf:RDF>
<cc:Work rdf:about="">
<dc:format>image/svg+xml</dc:format>
<dc:type rdf:resource="http://purl.org/dc/dcmitype/StillImage"/>
<dc:title/>
</cc:Work>
</rdf:RDF>
</metadata>
<path transform="scale(.26458)" d="m346.25 25.025a11.937 9.8022 0 0 0 -11.76 9.4434 12.086 9.9247 0 0 0 -0.90429 -0.03125 12.086 9.9247 0 0 0 -12.086 9.9258 12.086 9.9247 0 0 0 12.086 9.9238 12.086 9.9247 0 0 0 1.6699 -0.095703 12.086 9.9247 0 0 0 11.162 6.123 12.086 9.9247 0 0 0 11.223 -6.2422 12.086 9.9247 0 0 0 2.5039 0.21484 12.086 9.9247 0 0 0 12.086 -9.9238 12.086 9.9247 0 0 0 -12.086 -9.9258 12.086 9.9247 0 0 0 -1.7969 0.11328 11.937 9.8022 0 0 0 -11.93 -9.5234 11.937 9.8022 0 0 0 -0.16797 0v-0.001953zm-264.51 60.744a16.471 13.526 0 0 0 -16.227 13.029 16.677 13.695 0 0 0 -1.248 -0.041016 16.677 13.695 0 0 0 -16.678 13.693 16.677 13.695 0 0 0 16.678 13.695 16.677 13.695 0 0 0 2.3027 -0.13281 16.677 13.695 0 0 0 15.402 8.4492 16.677 13.695 0 0 0 15.486 -8.6133 16.677 13.695 0 0 0 3.4551 0.29687 16.677 13.695 0 0 0 16.678 -13.695 16.677 13.695 0 0 0 -16.678 -13.693 16.677 13.695 0 0 0 -2.4805 0.1543 16.471 13.526 0 0 0 -16.461 -13.141 16.471 13.526 0 0 0 -0.23047 0v-0.001953zm246.32 102.7a17.766 14.589 0 0 0 -17.504 14.053 17.988 14.772 0 0 0 -1.3457 -0.04492 17.988 14.772 0 0 0 -17.988 14.771 17.988 14.772 0 0 0 17.988 14.771 17.988 14.772 0 0 0 2.4844 -0.14258 17.988 14.772 0 0 0 16.615 9.1133 17.988 14.772 0 0 0 16.703 -9.2891 17.988 14.772 0 0 0 3.7266 0.31836 17.988 14.772 0 0 0 17.988 -14.771 17.988 14.772 0 0 0 -17.988 -14.771 17.988 14.772 0 0 0 -2.6738 0.16601 17.766 14.589 0 0 0 -17.756 -14.174 17.766 14.589 0 0 0 -0.25 0zm-190.25 76.723a23.596 19.377 0 0 0 -23.246 18.664 23.891 19.619 0 0 0 -1.7871 -0.0586 23.891 19.619 0 0 0 -23.891 19.617 23.891 19.619 0 0 0 23.891 19.619 23.891 19.619 0 0 0 3.2988 -0.18945 23.891 19.619 0 0 0 22.066 12.104 23.891 19.619 0 0 0 22.186 -12.338 23.891 19.619 0 0 0 4.9492 0.42383 23.891 19.619 0 0 0 23.891 -19.619 23.891 19.619 0 0 0 -23.891 -19.619 23.891 19.619 0 0 0 -3.5527 0.22265 23.596 19.377 0 0 0 -23.582 -18.826 23.596 19.377 0 0 0 -0.33203 0zm122.78 149.55a18.333 15.055 0 0 0 -18.061 14.502 18.562 15.243 0 0 0 -1.3887 -0.04687 18.562 15.243 0 0 0 -18.562 15.244 18.562 15.243 0 0 0 18.562 15.242 18.562 15.243 0 0 0 2.5625 -0.14648 18.562 15.243 0 0 0 17.145 9.4023 18.562 15.243 0 0 0 17.238 -9.584 18.562 15.243 0 0 0 3.8457 0.32812 18.562 15.243 0 0 0 18.562 -15.242 18.562 15.243 0 0 0 -18.562 -15.244 18.562 15.243 0 0 0 -2.7617 0.17187 18.333 15.055 0 0 0 -18.322 -14.627 18.333 15.055 0 0 0 -0.25781 0zm-141.09 113.82a16.471 13.526 0 0 0 -16.227 13.027 16.677 13.695 0 0 0 -1.248 -0.04102 16.677 13.695 0 0 0 -16.676 13.695 16.677 13.695 0 0 0 16.676 13.693 16.677 13.695 0 0 0 2.3047 -0.13086 16.677 13.695 0 0 0 15.402 8.4473 16.677 13.695 0 0 0 15.486 -8.6113 16.677 13.695 0 0 0 3.4551 0.29492 16.677 13.695 0 0 0 16.676 -13.693 16.677 13.695 0 0 0 -16.676 -13.695 16.677 13.695 0 0 0 -2.4805 0.1543 16.471 13.526 0 0 0 -16.461 -13.141 16.471 13.526 0 0 0 -0.23243 0z" fill="#fff" fill-rule="evenodd"/>
</svg>
