<?xml version="1.0" encoding="UTF-8"?>
<svg width="60" height="85" version="1.1" viewBox="0 0 15.875 22.489584" xmlns="http://www.w3.org/2000/svg" xmlns:cc="http://creativecommons.org/ns#" xmlns:dc="http://purl.org/dc/elements/1.1/" xmlns:rdf="http://www.w3.org/1999/02/22-rdf-syntax-ns#">
<metadata>
<rdf:RDF>
<cc:Work rdf:about="">
<dc:format>image/svg+xml</dc:format>
<dc:type rdf:resource="http://purl.org/dc/dcmitype/StillImage"/>
<dc:title/>
</cc:Work>
</rdf:RDF>
</metadata>
<g>
<path d="m7.9551 14.952-0.064801 1.1747-6.0978-2.0229-1.6849-1.7522 2.4342 1.454z" fill="#f0f" stroke="#000" stroke-width=".26458px"/>
<path d="m3.47 5.2665c2.2789 0.98478-0.094974 0.75092 4.9999 2.4281 0.49607 0.36618-0.04313 0.44015-0.19581 0.51969-4.2617-1.2306-4.3074-2.3835-4.8041-2.9478z" fill="#f0f" stroke="#000" stroke-width=".265"/>
<path d="m10.446 15.892-1.2904 0.37593 4.6241 4.876 1.8246 0.90386-1.865-1.7092z" fill="#f0f" stroke="#000" stroke-width=".26458px"/>
<path d="m9.7579 8.1853c2.5169 3.785 4.4097 3.2163 4.6674 3.3399-0.84646-0.69663-2.2358-0.72787-4.3276-3.628z" fill="#f0f" stroke="#000" stroke-width=".26458px"/>
<path d="m5.0701 14.172c3.1878-1.2923 3.1508-3.7149 3.2774-6.2676 0.50961-0.26026 1.0418-0.3626 1.6136-0.18709 0.68778 3.1536-0.50204 7.2084 3.8386 9.8562-4.7182 1.1101-6.5843-2.7092-8.7297-3.4015z" fill="#f0f" stroke="#000" stroke-width=".26458"/>
<path d="m6.8792 7.2099c-1.429 1.8262-2.8702 3.7153-3.4396 1.1576 2.1234 1.7599 1.6946-1.0174 1.5214-3.3404-0.0019819-0.89917 1.4594-1.6163 0.95911-4.101 2.02-1.5076 2.1155 0.41533 2.1497 2.4474 0.31076 1.9359-0.27272 3.0415-1.1906 3.8365z" fill="#00f" stroke="#000" stroke-width=".26458px"/>
<path d="m13.676 9.4423c-0.041985 0.99196-0.83055 0.75119-1.3935 0.091353-0.45536-0.5337-0.21745-1.3085-0.40894-1.993-0.55361-1.0262-0.72134-0.28478-0.62838-2.6458-0.66772-0.99868-0.82322-2.7746-1.6536-2.7285-0.082237 0.72507 0.085328 0.93012-0.23151 1.5379-0.52433-0.0077875-1.035-0.033154-1.2568-0.42995-0.63902-2.1988 2.9465-3.505 3.0096-0.066146 2.0648 3.3584 0.69392 2.7562 0.95911 3.8034 0.20631 0.5494 0.45117 0.75067 0.57565 1.1312 0.09047 0.27656-0.29606 0.64781 0.08581 1.217 0.42366 0.4322 0.63788 0.40752 0.94258 0.082682z" fill="#00f" stroke="#000" stroke-width=".26458px"/>
<path d="m6.8391 3.3793c0.16188-0.37186 0.45147-0.67495 0.23386-1.2512-0.24148-0.386-0.4406-0.80164-0.37418-1.4032 0.50712 1.1771 0.85174 0.83763 1.2745 1.2278 0.15289 0.46382 0.1212 0.92765 0.058465 1.3915-0.385 0.3634-0.77674 0.53815-1.1927 0.035079z" fill="#0ff" stroke="#f00" stroke-width=".26458px"/>
<path d="m8.1604 3.2156 0.59634-1.1225c0.3977-0.40921 0.75099-0.09805 1.2278-0.81851-0.044802 0.64206-0.64027 1.1117-0.46772 1.941-0.45213 0.83799-0.90426 0.44516-1.3564 0z" fill="#0ff" stroke="#f00" stroke-width=".26458px"/>
<path d="m6.8792 3.3404c-1.2009 0.21949-2.5207 3.8412 2.1828 4.7625 2.4828-0.54242 2.8433-2.786 0.49609-4.8948z" fill="#ffb380" stroke="#000" stroke-width=".26458px"/>
<path d="m6.3913 4.6054c0.30316-0.096422 0.79205-0.33601 0.92604-0.37207 0.3849-0.081241 0.42218 0.34593 0.074414 0.38034-0.15049-0.019977-0.55981-0.072488-1.0005-0.0082682z" fill="#fff" stroke="#000" stroke-linejoin="round" stroke-width=".13229"/>
<path d="m9.9072 4.2638c-0.31693-0.027501-0.8465-0.15389-0.98514-0.15965-0.39334 0.0052574-0.33592 0.43019 0.010917 0.3874 0.14243-0.052534 0.53023-0.19364 0.97422-0.22775z" fill="#fff" stroke="#000" stroke-linejoin="round" stroke-width=".13229"/>
<path d="m7.0115 5.7133c0.60426 2.236 2.0485 1.425 2.5135-0.041341" fill="none" stroke="#000" stroke-linecap="round" stroke-width=".13229"/>
<circle cx="7.4062" cy="4.4141" r=".12278" fill="#f0f" fill-opacity=".99608" fill-rule="evenodd" opacity=".995" stroke-width=".26458"/>
<circle cx="8.8795" cy="4.303" r=".12278" fill="#f0f" fill-opacity=".99608" fill-rule="evenodd" opacity=".995" stroke-width=".26458"/>
</g>
</svg>
