<?xml version="1.0" encoding="UTF-8"?>
<svg width="50" height="50" version="1.1" viewBox="0 0 13.229166 13.229167" xmlns="http://www.w3.org/2000/svg" xmlns:cc="http://creativecommons.org/ns#" xmlns:dc="http://purl.org/dc/elements/1.1/" xmlns:rdf="http://www.w3.org/1999/02/22-rdf-syntax-ns#">
<metadata>
<rdf:RDF>
<cc:Work rdf:about="">
<dc:format>image/svg+xml</dc:format>
<dc:type rdf:resource="http://purl.org/dc/dcmitype/StillImage"/>
<dc:title/>
</cc:Work>
</rdf:RDF>
</metadata>
<g>
<g transform="matrix(1.212 0 0 1.2104 -1.3994 -1.3928)" stroke="#660404" stroke-width=".82561">
<path d="m5.3827 5.297 3.3569 1.3168-3.3569 1.3168 0.71969-1.3092z" fill="#660404" opacity=".997" stroke-width=".43689"/>
<g transform="matrix(.97827 0 0 .97828 .13012 .14356)">
<path transform="matrix(-.81462 -.58 .58006 -.81458 0 0)" d="m-4.1989-1.552a5.0269 5.0291 0 0 1 -4.1382 4.9499 5.0269 5.0291 0 0 1 -5.6014 -3.1997 5.0269 5.0291 0 0 1 2.1577 -6.0812 5.0269 5.0291 0 0 1 6.3643 1.0495" fill="none" stroke-linecap="round" stroke-width="1.1165"/>
<path d="m3.3685 4.1198-1.624 0.74926 9.226e-4 -1.7414 0.53051 0.91691z" fill="#660404" opacity=".997" stroke-miterlimit="20" stroke-width=".44659"/>
</g>
</g>
</g>
</svg>
