<?xml version="1.0" standalone="no"?>
<!DOCTYPE svg PUBLIC "-//W3C//DTD SVG 20010904//EN"
 "http://www.w3.org/TR/2001/REC-SVG-20010904/DTD/svg10.dtd">
<svg version="1.0" xmlns="http://www.w3.org/2000/svg"
 width="700.000000pt" height="700.000000pt" viewBox="0 0 700.000000 700.000000"
 preserveAspectRatio="xMidYMid meet">
<metadata>
Created by potrace 1.14, written by Peter Selinger 2001-2017
</metadata>
<g transform="translate(0.000000,700.000000) scale(0.100000,-0.100000)"
fill="#000000" stroke="none">
<path d="M3430 6989 c-36 -4 -90 -10 -120 -13 -85 -9 -275 -44 -385 -72 -55
-14 -111 -28 -124 -31 -61 -11 -423 -138 -553 -194 -198 -84 -510 -241 -580
-290 -14 -11 -29 -19 -32 -19 -30 0 -496 -326 -621 -435 -16 -15 -57 -50 -90
-78 -80 -69 -266 -255 -342 -342 -288 -329 -485 -711 -531 -1030 -9 -63 -9
-297 0 -350 31 -185 114 -388 188 -462 88 -87 219 -143 443 -189 4 -1 12 -2
18 -3 5 0 8 -4 6 -8 -3 -5 -8 -53 -12 -108 -4 -55 -9 -113 -10 -130 -10 -110
-16 -173 -20 -195 -3 -14 -7 -50 -10 -80 -5 -50 -37 -276 -51 -360 -3 -19 -29
-145 -57 -280 l-51 -245 0 -200 c0 -119 5 -230 12 -275 30 -172 106 -344 230
-520 74 -105 276 -314 392 -406 41 -32 79 -63 85 -67 34 -28 204 -140 279
-185 159 -96 429 -219 616 -282 83 -28 353 -97 405 -104 22 -2 76 -10 120 -17
139 -21 449 -17 615 7 39 6 232 46 282 58 117 30 325 99 423 140 22 9 58 24
80 34 70 29 358 177 405 207 25 16 61 38 80 48 19 11 37 22 40 26 3 3 39 28
80 56 266 176 539 445 679 669 77 123 136 287 140 389 1 12 20 26 59 43 267
118 588 305 762 444 440 352 586 745 382 1030 -14 20 -17 27 -7 18 18 -17 19
-15 35 30 9 26 24 63 32 82 9 19 21 49 27 65 6 17 16 44 22 60 7 17 13 32 14
35 1 3 13 41 27 86 179 552 144 1001 -104 1332 -114 152 -252 264 -468 380
-144 77 -292 125 -412 134 -43 4 -33 14 25 25 28 6 66 14 82 17 17 4 95 25
175 47 360 99 643 233 798 377 49 46 53 53 48 84 -19 119 -172 255 -365 326
-53 19 -86 24 -168 24 -56 0 -110 -3 -120 -6 -10 -2 -38 -7 -63 -10 -104 -13
-300 -74 -393 -122 -24 -13 -29 -13 -21 -3 18 23 55 118 59 152 7 57 -50 241
-97 309 -10 14 -18 29 -18 33 0 15 -90 133 -140 183 -62 62 -102 85 -150 85
-56 0 -118 -39 -205 -127 -93 -94 -157 -181 -215 -292 -23 -44 -45 -82 -49
-86 -4 -5 -25 16 -46 44 -210 277 -544 459 -960 524 -22 3 -51 8 -65 10 -47 9
-445 11 -510 3z"/>
</g>
</svg>
